<svg width="64" height="64" viewBox="0 0 64 64" fill="none" xmlns="http://www.w3.org/2000/svg">
  <defs>
    <linearGradient id="bg" x1="8" y1="6" x2="55" y2="59" gradientUnits="userSpaceOnUse">
      <stop stop-color="#153A31"/>
      <stop offset="1" stop-color="#0B1714"/>
    </linearGradient>
    <linearGradient id="adworkGreen" x1="16" y1="10" x2="40" y2="38" gradientUnits="userSpaceOnUse">
      <stop stop-color="#2BE39A"/>
      <stop offset="1" stop-color="#14A86F"/>
    </linearGradient>
  </defs>

  <rect x="3" y="3" width="58" height="58" rx="14" fill="url(#bg)"/>
  <path d="M16 40L26 17C27 15 30 15 31 17L39 31C40 33 39 35 37 35H33C32 35 31 35 30 34L28 31C28 30 26 30 25 31L21 40C20 41 19 42 18 42H17C15 42 14 41 16 40Z" fill="url(#adworkGreen)"/>
  <rect x="31" y="16" width="5.3" height="26" rx="2.65" transform="rotate(-28 31 16)" fill="url(#adworkGreen)"/>
</svg>
